<?xml version="1.0" encoding="utf-8"?>
<!-- Svg Vector Icons : http://www.onlinewebfonts.com/icon -->
<!DOCTYPE svg PUBLIC "-//W3C//DTD SVG 1.1//EN" "http://www.w3.org/Graphics/SVG/1.1/DTD/svg11.dtd">
<svg version="1.1" xmlns="http://www.w3.org/2000/svg" xmlns:xlink="http://www.w3.org/1999/xlink" x="0px" y="0px" viewBox="0 0 1000 1000" enable-background="new 0 0 1000 1000" xml:space="preserve">
<metadata> Svg Vector Icons : http://www.onlinewebfonts.com/icon </metadata>
<g><g transform="translate(0.000000,511.000000) scale(0.100000,-0.100000)"><path d="M4545.7,5043.6c-250.2-22.7-667.9-107.5-868.5-173.7c-332.9-111.6-661.7-316.4-800.2-496.3l-57.9-76.5l-6.2-905.7c-6.2-887.1-4.1-907.7,37.2-949.1c62-62,103.4-51.7,227.5,64.1c457,423.9,1033.9,603.8,1933.3,601.7c876.7,0,1480.5-188.2,1900.3-591.4c128.2-124.1,175.8-138.5,239.9-74.4c41.3,41.4,43.4,62,37.2,949.1l-6.2,905.7l-57.9,76.5c-86.9,113.7-291.6,266.7-479.7,361.9C6121.3,4996,5304.6,5115.9,4545.7,5043.6z M5166,4530.8v-246.1l254.3-6.2l252.3-6.2v-165.4v-165.4l-252.3-6.2l-252.3-6.2l-6.2-252.3l-6.2-252.3h-155.1h-155.1l-6.2,252.3l-6.2,252.3l-252.3,6.2l-252.3,6.2v165.4v165.4l254.3,6.2l252.3,6.2v246.1v248.1h165.4H5166V4530.8z"/><path d="M4438.2,2907.6c-587.2-80.7-1066.9-308.1-1352.3-641c-78.6-93-91-119.9-91-202.6c0-78.6-10.3-103.4-70.3-163.4c-41.4-41.4-80.6-109.6-95.1-161.3c-33.1-124.1-28.9-502.5,8.3-641c76.5-291.6,225.4-574.8,403.2-769.2c72.4-78.6,115.8-150.9,146.8-241.9c210.9-628.6,665.8-1079.4,1228.2-1222c221.3-55.8,548-55.8,769.2,0C5947.6-992.2,6408.7-535.2,6611.4,81c31,95.1,72.4,163.4,150.9,252.3c306,337,473.5,827.1,430.1,1257.2c-18.6,182-53.8,268.8-134.4,330.8c-43.4,35.2-51.7,57.9-51.7,144.7c0,101.3-4.1,109.6-138.5,248.1c-326.7,332.9-734,514.9-1325.4,593.4C5259.1,2944.8,4715.3,2944.8,4438.2,2907.6z"/><path d="M2984.6-644.8L2674.4-773L2608.2-897c-97.2-177.9-208.8-533.5-250.2-802.3c-20.7-128.2-43.4-229.5-51.7-225.4c-8.3,2.1-43.4,4.1-78.6,4.1h-64.1l14.5,140.6c18.6,179.9,113.7,554.1,186.1,734c31,78.6,51.7,144.7,47.6,150.9c-12.4,10.3-496.3-200.6-740.2-322.6C983-1560.8,575.6-2059.1,294.4-2902.8c-111.7-337-173.7-638.9-188.2-922.2c-16.5-304-10.3-320.5,144.7-390.8c413.5-186.1,1182.7-370.1,1980.9-473.5c862.2-111.6,1627.3-155.1,2768.7-155.1c2059.5,0,3647.5,198.5,4627.6,579c283.3,109.6,281.2,105.5,266.7,409.4c-35.2,775.4-407.4,1693.5-876.7,2156.6c-258.5,256.4-514.9,413.5-1062.8,657.5l-210.9,93l14.5-126.2c6.2-70.3,12.4-182,12.4-246v-117.9l169.6-33.1c254.3-49.6,411.5-136.5,605.8-332.9c134.4-134.4,186.1-206.8,264.7-363.9c202.6-409.4,320.5-1145.5,229.5-1445.4c-55.8-192.3-289.5-374.2-477.7-374.2c-41.3,0-47.5,10.3-47.5,72.4c0,64.1,6.2,72.4,78.6,93c99.2,24.8,204.7,95.1,260.5,171.6c39.3,53.8,43.4,84.8,41.3,361.9c-6.2,812.6-314.3,1428.8-808.5,1617c-148.9,57.9-459,78.6-630.7,43.4c-490.1-103.4-829.2-566.6-934.6-1288.2c-41.4-275-47.6-612-12.4-680.3c51.7-101.3,153-186.1,262.6-217.1c105.4-31,109.6-35.2,109.6-103.4c0-60-6.2-70.3-47.6-70.3c-155.1,0-372.2,142.7-452.8,297.8c-60,115.8-72.4,382.5-28.9,707.1c41.4,318.4,113.7,568.6,229.5,804.4c208.8,426,500.4,649.3,947,723.7l76.5,12.4v138.5c-2.1,198.5-33.1,421.8-64.1,440.4c-53.8,33.1-868.5,353.6-878.8,345.3c-4.1-6.2-41.4-142.7-80.7-306c-256.4-1038-572.8-1914.7-976-2688.1c-330.8-634.8-508.7-934.6-576.9-959.4c-84.8-33.1-177.8,99.3-537.6,771.3c-357.7,672-614.1,1288.2-833.3,2016c-88.9,291.6-252.3,899.5-299.8,1114.5c-8.3,31-24.8,55.8-39.3,53.8C3307.1-516.6,3156.2-574.5,2984.6-644.8z M2418-2052.9c250.2-165.4,235.7-527.3-26.9-674.1c-117.9-66.2-310.2-53.8-417.7,26.9c-194.4,148.9-210.9,432.2-35.2,601.7C2066.5-1974.3,2271.2-1955.7,2418-2052.9z M7134.5-3692.6c31-26.9,37.2-66.2,37.2-233.6c0-215.1-14.5-248.1-105.4-248.1c-88.9,0-122,66.2-122,244C6944.3-3696.8,7025-3593.4,7134.5-3692.6z M8395.9-3692.6c31-26.9,37.2-66.2,37.2-233.6c0-215.1-14.5-248.1-105.4-248.1c-88.9,0-122,66.2-122,250.2c0,128.2,8.3,167.5,43.4,213C8298.7-3649.2,8342.1-3643,8395.9-3692.6z"/></g></g>
</svg>