<?xml version="1.0" encoding="utf-8"?>
<!-- Svg Vector Icons : http://www.onlinewebfonts.com/icon -->
<!DOCTYPE svg PUBLIC "-//W3C//DTD SVG 1.1//EN" "http://www.w3.org/Graphics/SVG/1.1/DTD/svg11.dtd">
<svg version="1.1" xmlns="http://www.w3.org/2000/svg" xmlns:xlink="http://www.w3.org/1999/xlink" x="0px" y="0px" viewBox="0 0 1000 1000" enable-background="new 0 0 1000 1000" xml:space="preserve">
<metadata> Svg Vector Icons : http://www.onlinewebfonts.com/icon </metadata>
<g><g transform="translate(0.000000,511.000000) scale(0.100000,-0.100000)"><path d="M2652.3,4974.5c-61.2-16.3-149-53.1-196-79.6c-122.5-71.5-265.4-238.9-312.3-369.5c-42.9-112.3-42.9-124.5-42.9-4417.7v-4305.4l44.9-118.4c59.2-161.3,245-349.1,414.4-416.4l122.5-49l2274.2-6.1c2508.9-6.1,2415-10.2,2619.2,120.4c122.5,79.6,212.3,191.9,273.5,340.9l49,116.4V107.7v4317.7l-49,116.4c-93.9,226.6-259.2,373.6-492,434.8C7180.3,5021.5,2825.9,5021.5,2652.3,4974.5z M5734.9,4578.5c61.3-61.2,55.1-169.4-12.2-222.5c-53.1-40.8-77.6-42.9-716.6-42.9h-661.4l-49,51c-63.3,61.2-65.3,144.9-6.1,208.2l42.9,46.9h681.9C5667.6,4619.3,5696.1,4617.3,5734.9,4578.5z M7623.3,332.3v-3603.1h-2613H2397.2L2391,311.9c-2,1970,0,3595,6.1,3609.3c6.1,20.4,541,24.5,2617.1,20.4l2609-6.1V332.3z M5149-3589.3c100-26.6,234.8-149,281.7-253.1c87.8-189.9,14.3-447.1-161.3-569.6c-69.4-49-114.3-63.3-216.4-69.4c-169.4-10.2-263.3,22.4-367.4,126.6C4346.7-4018,4685.6-3460.7,5149-3589.3z"/><path d="M4618.2,3263.8c-291.9-55.1-469.5-132.7-610.4-261.3l-89.8-83.7v-477.7c0-555.3,0-553.2,167.4-406.3c218.4,191.9,610.4,291.9,1047.3,269.5c379.7-18.4,643.1-106.2,828.8-273.5c165.4-149,169.5-138.8,177.6,392c4.1,363.4,0,451.2-26.5,502.2c-59.2,114.3-267.4,234.8-532.8,306.2C5371.5,3288.3,4840.8,3304.6,4618.2,3263.8z M5128.6,3188.3c95.9-26.5,216.4-128.6,251.1-216.4c36.8-85.7,36.8-259.3,0-328.7c-61.2-116.4-228.6-228.6-343-228.6c-153.1,0-304.2,95.9-365.4,234.8c-100,218.4,16.3,471.6,247,536.9C5014.3,3214.8,5038.8,3214.8,5128.6,3188.3z"/><path d="M4969.4,3084.1c-4.1-14.3-12.3-67.4-14.3-118.4l-6.1-91.9l-108.2-6.1c-71.5-4.1-112.3-16.3-120.5-36.8c-20.4-53.1,34.7-89.8,138.8-89.8h98l6.1-106.2c6.1-100,10.2-108.2,63.3-114.3c55.1-6.1,55.1-4.1,55.1,106.2v114.3h98c112.3,0,153.1,20.4,142.9,73.5c-4.1,28.6-26.5,40.8-77.6,44.9c-155.1,12.2-161.3,16.3-167.4,132.7c-6.1,91.9-12.2,106.2-53.1,112.3C5000,3108.7,4975.5,3098.4,4969.4,3084.1z"/><path d="M4704,2196.1c-110.2-14.3-281.7-69.4-400.1-128.6c-144.9-73.5-304.2-228.6-304.2-298c0-26.5-16.3-65.3-38.8-87.8c-20.4-20.4-42.9-81.7-51-136.8c-26.5-200.1,55.1-449.1,204.1-632.9c36.7-46.9,85.7-130.6,108.2-189.8c89.8-236.8,253.1-422.6,469.5-526.7c102.1-51,136.8-57.2,328.7-57.2c189.9,0,228.7,6.1,330.7,55.1c204.1,93.9,400.1,312.3,475.7,526.7c16.3,49,67.4,136.8,112.3,193.9c140.9,183.7,191.9,320.5,193.9,524.6c0,151.1-6.1,183.7-44.9,238.8c-26.5,32.7-47,83.7-47,112.3c0,67.4-171.5,218.4-334.8,296c-183.7,87.8-396,124.5-690,122.5C4877.5,2206.3,4738.7,2200.2,4704,2196.1z"/><path d="M3887.4,283.3c-451.2-187.8-592-267.4-747.2-420.5C2930-345.5,2785-666,2734-1035.5c-12.3-89.8-16.3-181.7-10.2-202.1c36.7-116.4,698.2-267.4,1424.9-326.6c336.8-28.6,1335.1-28.6,1690.3-2c714.5,57.2,1400.4,212.3,1437.2,326.6c6.1,22.5,2,114.3-10.2,204.1c-51,369.5-196,690-406.3,900.3C6747.5-22.9,6682.2,22,6490.3,113.8c-265.4,126.6-696.1,304.2-710.4,289.9c-4.1-4.1-26.5-124.5-46.9-267.4c-47-320.5-140.9-712.5-222.5-922.7c-116.4-304.2-306.2-557.3-443-594.1c-349.1-96-688,596.1-832.9,1698.5c-6.1,53.1-18.4,95.9-26.5,93.9C4199.8,411.9,4056.9,354.7,3887.4,283.3z"/><path d="M2876.9-2464.5c-53.1-53.1-53.1-165.4-4.1-210.3c34.7-32.7,212.3-34.7,2131.3-34.7c2000.6,0,2094.5,2,2125.1,36.7c47,51,42.9,159.2-6.1,208.2c-40.8,40.8-67.4,40.8-2123.1,40.8C2944.3-2423.7,2917.7-2423.7,2876.9-2464.5z"/></g></g>
</svg>